{
  "source": "C:\\Users\\Peter\\Desktop\\stuff\\MIUN\\quantitative_research\\video_compression\\videos\\BVI-HD\\CloudsZoom_1920x1080_60fps.mp4",
  "output": "C:\\Users\\Peter\\Desktop\\stuff\\MIUN\\quantitative_research\\video_compression\\compressed_videos\\BVI-HD\\h264\\12\\CloudsZoom_1920x1080_60fps_h264.mp4",
  "codec": "h264",
  "ok": "Input #0, mov,mp4,m4a,3gp,3g2,mj2, from 'C:\\Users\\Peter\\Desktop\\stuff\\MIUN\\quantitative_research\\video_compression\\videos\\BVI-HD\\CloudsZoom_1920x1080_60fps.mp4':\n  Metadata:\n    major_brand     : isom\n    minor_version   : 512\n    compatible_brands: isomiso2avc1mp41\n    encoder         : Lavf54.28.101\n  Duration: 00:00:05.00, start: 0.000000, bitrate: 32589 kb/s\n  Stream #0:0[0x1](und): Video: h264 (High 4:4:4 Predictive) (avc1 / 0x31637661), yuv420p(progressive), 1920x1080, 32586 kb/s, 60 fps, 60 tbr, 60 tbn (default)\n    Metadata:\n      handler_name    : VideoHandler\n      vendor_id       : [0][0][0][0]\n[out#0/mp4 @ 00000219674b9a80] Codec AVOption b:a (set bitrate (in bits/s)) has not been used for any stream. The most likely reason is either wrong type (e.g. a video option with no video streams) or that it is a private option of some decoder which was not actually used for any stream.\nStream mapping:\n  Stream #0:0 -> #0:0 (h264 (native) -> h264 (libx264))\nPress [q] to stop, [?] for help\n[libx264 @ 0000021967ca0b40] using cpu capabilities: MMX2 SSE2Fast SSSE3 SSE4.2 AVX FMA3 BMI2 AVX2\n[libx264 @ 0000021967ca0b40] profile High, level 5.0, 4:2:0, 8-bit\n[libx264 @ 0000021967ca0b40] 264 - core 165 r3222 b35605a - H.264/MPEG-4 AVC codec - Copyleft 2003-2025 - http://www.videolan.org/x264.html - options: cabac=1 ref=5 deblock=1:0:0 analyse=0x3:0x113 me=hex subme=8 psy=1 psy_rd=1.00:0.00 mixed_ref=1 me_range=16 chroma_me=1 trellis=2 8x8dct=1 cqm=0 deadzone=21,11 fast_pskip=1 chroma_qp_offset=-2 threads=18 lookahead_threads=3 sliced_threads=0 nr=0 decimate=1 interlaced=0 bluray_compat=0 constrained_intra=0 bframes=3 b_pyramid=2 b_adapt=1 b_bias=0 direct=3 weightb=1 open_gop=0 weightp=2 keyint=250 keyint_min=25 scenecut=40 intra_refresh=0 rc_lookahead=50 rc=cbr mbtree=1 bitrate=12000 ratetol=1.0 qcomp=0.60 qpmin=0 qpmax=69 qpstep=4 vbv_maxrate=12000 vbv_bufsize=12000 nal_hrd=none filler=0 ip_ratio=1.40 aq=1:1.00\nOutput #0, mp4, to 'C:\\Users\\Peter\\Desktop\\stuff\\MIUN\\quantitative_research\\video_compression\\compressed_videos\\BVI-HD\\h264\\12\\CloudsZoom_1920x1080_60fps_h264.mp4':\n  Metadata:\n    major_brand     : isom\n    minor_version   : 512\n    compatible_brands: isomiso2avc1mp41\n    encoder         : Lavf62.3.100\n  Stream #0:0(und): Video: h264 (avc1 / 0x31637661), yuv420p(tv, progressive), 1920x1080, q=2-31, 12000 kb/s, 60 fps, 15360 tbn (default)\n    Metadata:\n      encoder         : Lavc62.11.100 libx264\n      handler_name    : VideoHandler\n      vendor_id       : [0][0][0][0]\n    Side data:\n      cpb: bitrate max/min/avg: 12000000/0/12000000 buffer size: 12000000 vbv_delay: N/A\nframe=    0 fps=0.0 q=0.0 size=       0KiB time=N/A bitrate=N/A speed=N/A elapsed=0:00:00.51    \nframe=    5 fps=4.8 q=18.0 size=       0KiB time=00:00:00.05 bitrate=   7.7kbits/s speed=0.0478x elapsed=0:00:01.04    \nframe=   28 fps= 18 q=16.0 size=     512KiB time=00:00:00.36 bitrate=11440.0kbits/s speed=0.231x elapsed=0:00:01.58    \nframe=   45 fps= 21 q=15.0 size=     768KiB time=00:00:00.70 bitrate=8988.3kbits/s speed=0.327x elapsed=0:00:02.14    \nframe=   54 fps= 20 q=15.0 size=    1024KiB time=00:00:00.80 bitrate=10486.2kbits/s speed=0.299x elapsed=0:00:02.67    \nframe=   71 fps= 22 q=15.0 size=    1280KiB time=00:00:01.13 bitrate=9252.5kbits/s speed=0.348x elapsed=0:00:03.25    \nframe=   91 fps= 24 q=15.0 size=    1792KiB time=00:00:01.46 bitrate=10009.4kbits/s speed=0.386x elapsed=0:00:03.79    \nframe=  112 fps= 26 q=15.0 size=    2304KiB time=00:00:01.78 bitrate=10584.0kbits/s speed=0.407x elapsed=0:00:04.38    \nframe=  133 fps= 27 q=16.0 size=    2816KiB time=00:00:02.13 bitrate=10813.6kbits/s speed=0.43x elapsed=0:00:04.95    \nframe=  153 fps= 28 q=15.0 size=    3328KiB time=00:00:02.51 bitrate=10833.1kbits/s speed=0.453x elapsed=0:00:05.55    \nframe=  175 fps= 29 q=15.0 size=    3840KiB time=00:00:02.80 bitrate=11234.9kbits/s speed=0.458x elapsed=0:00:06.10    \nframe=  194 fps= 29 q=16.0 size=    4352KiB time=00:00:03.20 bitrate=11141.2kbits/s speed=0.477x elapsed=0:00:06.70    \nframe=  220 fps= 30 q=16.0 size=    5120KiB time=00:00:03.58 bitrate=11705.1kbits/s speed=0.49x elapsed=0:00:07.30    \nframe=  241 fps= 31 q=16.0 size=    5632KiB time=00:00:03.98 bitrate=11582.7kbits/s speed=0.506x elapsed=0:00:07.87    \nframe=  265 fps= 31 q=15.0 size=    6144KiB time=00:00:04.35 bitrate=11570.6kbits/s speed=0.516x elapsed=0:00:08.43    \nframe=  284 fps= 32 q=-1.0 size=    6656KiB time=00:00:04.68 bitrate=11642.6kbits/s speed=0.52x elapsed=0:00:09.00    \n[mp4 @ 00000219674c1240] Starting second pass: moving the moov atom to the beginning of the file\n[out#0/mp4 @ 00000219674b9a80] video:7173KiB audio:0KiB subtitle:0KiB other streams:0KiB global headers:0KiB muxing overhead: 0.062014%\nframe=  300 fps= 32 q=-1.0 Lsize=    7177KiB time=00:00:04.96 bitrate=11838.5kbits/s speed=0.534x elapsed=0:00:09.29    \n[libx264 @ 0000021967ca0b40] frame I:2     Avg QP: 3.37  size: 62590\n[libx264 @ 0000021967ca0b40] frame P:76    Avg QP: 6.03  size: 36149\n[libx264 @ 0000021967ca0b40] frame B:222   Avg QP: 7.84  size: 20144\n[libx264 @ 0000021967ca0b40] consecutive B-frames:  1.3%  0.0%  0.0% 98.7%\n[libx264 @ 0000021967ca0b40] mb I  I16..4: 33.5% 63.3%  3.2%\n[libx264 @ 0000021967ca0b40] mb P  I16..4:  3.5% 19.0%  0.5%  P16..4: 33.3% 14.1%  7.7%  0.0%  0.0%    skip:21.9%\n[libx264 @ 0000021967ca0b40] mb B  I16..4:  0.3%  2.1%  0.0%  B16..8: 39.5% 17.7%  3.5%  direct:10.3%  skip:26.4%  L0:60.6% L1:37.6% BI: 1.8%\n[libx264 @ 0000021967ca0b40] 8x8 transform intra:81.6% inter:74.5%\n[libx264 @ 0000021967ca0b40] direct mvs  spatial:95.5% temporal:4.5%\n[libx264 @ 0000021967ca0b40] coded y,uvDC,uvAC intra: 34.8% 24.6% 12.6% inter: 10.8% 17.3% 2.9%\n[libx264 @ 0000021967ca0b40] i16 v,h,dc,p: 54% 22% 24%  0%\n[libx264 @ 0000021967ca0b40] i8 v,h,dc,ddl,ddr,vr,hd,vl,hu: 14% 15% 67%  1%  0%  0%  1%  1%  1%\n[libx264 @ 0000021967ca0b40] i4 v,h,dc,ddl,ddr,vr,hd,vl,hu: 22% 26% 16%  5%  7%  6%  7%  4%  6%\n[libx264 @ 0000021967ca0b40] i8c dc,h,v,p: 68% 19% 12%  2%\n[libx264 @ 0000021967ca0b40] Weighted P-Frames: Y:0.0% UV:0.0%\n[libx264 @ 0000021967ca0b40] ref P L0: 45.2%  0.8% 29.0% 15.0% 10.1%\n[libx264 @ 0000021967ca0b40] ref B L0: 59.4% 28.7%  9.3%  2.6%\n[libx264 @ 0000021967ca0b40] ref B L1: 87.8% 12.2%\n[libx264 @ 0000021967ca0b40] kb/s:11751.04\n",
  "seconds": 9.603210926055908,
  "probe_out": {}
}